<svg width="16" height="14" viewBox="0 0 16 14" fill="none" xmlns="http://www.w3.org/2000/svg">
<path d="M16 2.45002V11.55C15.9986 12.0667 15.8176 12.5618 15.4964 12.9272C15.1752 13.2925 14.74 13.4985 14.2857 13.5H1.71429C1.26005 13.4985 0.824799 13.2925 0.503601 12.9272C0.182404 12.5618 0.00135662 12.0667 0 11.55V2.45002C0.000904667 2.17198 0.0534832 1.89731 0.154286 1.64402L1.14286 2.50202L6.96 7.56551C7.25953 7.82282 7.62465 7.96202 8 7.96202C8.37535 7.96202 8.74047 7.82282 9.04 7.56551L14.8571 2.50202L15.8457 1.64402C15.9465 1.89731 15.9991 2.17198 16 2.45002ZM14.2857 0.50002H1.71429C1.44991 0.498634 1.18917 0.569996 0.954286 0.70802L2.21143 1.80002L7.65143 6.53201C7.75211 6.61747 7.87438 6.66364 8 6.66364C8.12562 6.66364 8.24789 6.61747 8.34857 6.53201L13.7886 1.80002L15.0457 0.70802C14.8108 0.569996 14.5501 0.498634 14.2857 0.50002Z" fill="#51A5AD"/>
</svg>
