<svg width="24" height="25" viewBox="0 0 24 25" fill="none" xmlns="http://www.w3.org/2000/svg">
<path d="M19.575 7.08288H4.425C4.24045 7.08374 4.06254 7.15179 3.92451 7.27429C3.78648 7.39679 3.69778 7.56536 3.675 7.7485L2.34375 19.7485C2.33191 19.8531 2.34221 19.9589 2.37396 20.0593C2.40572 20.1596 2.45823 20.2521 2.52808 20.3308C2.59794 20.4095 2.68357 20.4726 2.77941 20.516C2.87525 20.5594 2.97916 20.5822 3.08438 20.5829H20.9156C21.0209 20.5822 21.1248 20.5594 21.2206 20.516C21.3164 20.4726 21.4021 20.4095 21.4719 20.3308C21.5418 20.2521 21.5943 20.1596 21.626 20.0593C21.6578 19.9589 21.6681 19.8531 21.6563 19.7485L20.325 7.7485C20.3022 7.56536 20.2135 7.39679 20.0755 7.27429C19.9375 7.15179 19.7596 7.08374 19.575 7.08288V7.08288Z" stroke="#131313" stroke-width="1.5" stroke-linecap="round" stroke-linejoin="round"/>
<path d="M8.25 10.0829V7.08288C8.25 6.08831 8.64509 5.13449 9.34835 4.43123C10.0516 3.72796 11.0054 3.33288 12 3.33288C12.9946 3.33288 13.9484 3.72796 14.6517 4.43123C15.3549 5.13449 15.75 6.08831 15.75 7.08288V10.0829" stroke="#131313" stroke-width="1.5" stroke-linecap="round" stroke-linejoin="round"/>
</svg>
