<svg width="24" height="25" viewBox="0 0 24 25" fill="none" xmlns="http://www.w3.org/2000/svg">
<g clip-path="url(#clip0_8_3611)">
<path d="M12.286 20.4501L19.8797 12.8564C21.7453 10.9814 22.0172 7.91573 20.2547 5.95635C19.8127 5.46258 19.2746 5.06412 18.6734 4.78531C18.0722 4.5065 17.4205 4.3532 16.758 4.33477C16.0956 4.31634 15.4363 4.43318 14.8205 4.67814C14.2047 4.9231 13.6454 5.29104 13.1766 5.75948L11.7516 7.19386L10.5235 5.95635C8.64847 4.09073 5.58284 3.81885 3.62347 5.58135C3.1297 6.02337 2.73123 6.56142 2.45242 7.16264C2.17361 7.76385 2.02031 8.41559 2.00188 9.07805C1.98346 9.74051 2.1003 10.3998 2.34526 11.0155C2.59022 11.6313 2.95816 12.1907 3.42659 12.6595L11.2172 20.4501C11.3594 20.5909 11.5515 20.6699 11.7516 20.6699C11.9517 20.6699 12.1438 20.5909 12.286 20.4501V20.4501Z" stroke="#131313" stroke-width="1.5" stroke-linecap="round" stroke-linejoin="round"/>
</g>
<defs>
<clipPath id="clip0_8_3611">
<rect width="24" height="24" fill="white" transform="translate(0 0.332886)"/>
</clipPath>
</defs>
</svg>
