<svg width="24" height="24" viewBox="0 0 24 24" fill="none" xmlns="http://www.w3.org/2000/svg">
<path d="M19.5759 6.75H4.42586C4.24131 6.75087 4.06339 6.81891 3.92536 6.94141C3.78733 7.06391 3.69864 7.23249 3.67586 7.41562L2.34461 19.4156C2.33277 19.5202 2.34306 19.6261 2.37482 19.7264C2.40658 19.8267 2.45909 19.9192 2.52894 19.9979C2.59879 20.0766 2.68442 20.1397 2.78026 20.1831C2.8761 20.2266 2.98001 20.2494 3.08523 20.25H20.9165C21.0217 20.2494 21.1256 20.2266 21.2215 20.1831C21.3173 20.1397 21.4029 20.0766 21.4728 19.9979C21.5426 19.9192 21.5951 19.8267 21.6269 19.7264C21.6587 19.6261 21.6689 19.5202 21.6571 19.4156L20.3259 7.41562C20.3031 7.23249 20.2144 7.06391 20.0764 6.94141C19.9383 6.81891 19.7604 6.75087 19.5759 6.75Z" fill="#1E4051"/>
<path d="M8.25 9.75V6.75C8.25 5.75544 8.64509 4.80161 9.34835 4.09835C10.0516 3.39509 11.0054 3 12 3C12.9946 3 13.9484 3.39509 14.6517 4.09835C15.3549 4.80161 15.75 5.75544 15.75 6.75V9.75" stroke="#1E4051" stroke-width="1.5" stroke-linecap="round" stroke-linejoin="round"/>
</svg>
