<svg width="38" height="49" viewBox="0 0 38 49" fill="none" xmlns="http://www.w3.org/2000/svg">
<path d="M23.8437 44.2301L24.8341 44.2214L24.8513 46.1607L24.8711 46.1605C24.9678 45.9905 25.0715 45.8334 25.1685 45.6763L26.159 44.2098L27.3855 44.199L25.9396 46.0795L27.5033 48.5844L26.3358 48.5947L25.2367 46.7103L24.8603 47.1758L24.8731 48.6073L23.8829 48.616L23.8437 44.2299V44.2301Z" fill="#00FFFF"/>
<path d="M29.3194 48.6005H28.3158V44.2141H29.3194V48.6005Z" fill="#00FF00"/>
<path d="M31.4722 47.852C31.5574 47.8715 31.6951 47.8715 31.8197 47.8715C32.725 47.8779 33.3152 47.3834 33.3152 46.3357C33.3218 45.4245 32.784 44.943 31.9248 44.943C31.7018 44.943 31.5574 44.9624 31.4722 44.982V47.8519V47.852ZM30.4686 44.2727C30.8359 44.2141 31.3147 44.1816 31.8196 44.1816C32.6592 44.1816 33.2037 44.3312 33.6299 44.6501C34.089 44.9886 34.3777 45.5288 34.3777 46.3032C34.3777 47.1425 34.0694 47.7219 33.6431 48.0797C33.1774 48.4638 32.4691 48.646 31.6033 48.646C31.0851 48.646 30.7178 48.6135 30.4686 48.5809V44.2727Z" fill="#FFD622"/>
<path d="M35.0686 47.5804C35.3378 47.7167 35.7512 47.8528 36.1773 47.8522C36.6366 47.8517 36.8789 47.6626 36.8785 47.3764C36.8782 47.103 36.6682 46.9471 36.1365 46.759C35.4016 46.506 34.9223 46.1032 34.9215 45.4654C34.9206 44.717 35.5496 44.1437 36.5923 44.1422C37.0909 44.1416 37.4583 44.2453 37.7208 44.3621L37.4988 45.1627C37.3216 45.0784 37.0066 44.9552 36.5737 44.9557C36.1409 44.9562 35.9311 45.1517 35.9314 45.3796C35.9318 45.6594 36.1812 45.7826 36.7521 45.9967C37.533 46.2822 37.9007 46.6852 37.9015 47.3035C37.9025 48.0388 37.3327 48.6642 36.1192 48.6658C35.6143 48.6663 35.1155 48.5369 34.8661 48.4004L35.0685 47.5803L35.0686 47.5804Z" fill="#F15A24"/>
<path fill-rule="evenodd" clip-rule="evenodd" d="M25.2955 0.934691C25.223 1.03604 25.1463 1.13823 25.0663 1.23967L25.0594 1.24804C24.3917 2.11166 23.5085 2.99399 22.5284 3.85159C22.5258 3.85328 22.5232 3.85572 22.5198 3.8576C20.9118 5.26707 19.0425 6.61053 17.4269 7.71511C16.4518 8.37923 15.5286 9.01044 14.677 9.62304C14.6727 9.62473 14.6702 9.62812 14.6658 9.6315C14.6351 9.65266 14.6028 9.67541 14.5722 9.69835C10.6853 12.4994 7.81684 15.5906 6.04542 18.886C4.89308 21.0316 4.19907 23.2692 3.97851 25.5533C3.97588 25.5778 3.97324 25.6033 3.97155 25.6285C3.92483 26.1305 3.90085 26.6349 3.90001 27.1402C3.89925 27.7411 3.93254 28.3181 3.99026 28.8691L3.99129 28.8869C4.03463 29.3042 4.09339 29.7065 4.16071 30.0926C4.15394 30.1036 4.14717 30.1128 4.14115 30.1232V30.1248C4.21007 30.5693 4.33454 31.2335 4.43241 31.6678C8.32358 24.3467 15.8198 19.2875 24.6243 18.636C24.8644 18.6183 25.1045 18.604 25.3439 18.5947C25.0347 19.4227 24.6804 20.2315 24.286 21.0172C24.0341 21.521 23.764 22.0145 23.4788 22.4978C16.2729 24.0425 10.2482 28.4933 6.60245 34.4742C6.4006 34.802 6.20722 35.135 6.02248 35.4738C6.07362 35.4654 6.12561 35.4578 6.17657 35.4476C6.29493 35.4274 6.4117 35.407 6.52837 35.3834C6.53175 35.3853 6.53269 35.3834 6.53439 35.3834C6.74648 35.3421 6.95585 35.3007 7.16457 35.2558C10.2903 34.5866 13.191 33.3705 15.773 31.7221C15.7774 31.7187 15.7816 31.7151 15.7858 31.7134C19.154 29.5579 21.9781 26.6654 24.0402 23.2812C24.2411 22.9533 24.4353 22.6203 24.6201 22.2815C24.7793 21.9934 24.9498 21.7061 25.0978 21.4112C25.5586 20.4926 25.9487 19.542 26.2977 18.5686C26.4035 18.277 26.5159 17.9508 26.6087 17.6558C26.2977 17.6534 25.9742 17.6897 25.6625 17.7015H25.6608C25.2947 17.7125 24.9268 17.732 24.5588 17.759C16.2314 18.3749 9.10484 22.7868 4.76898 29.1582L4.76391 29.1531C4.76391 29.1531 4.24955 25.8948 6.23552 22.4177C7.67149 19.9011 10.4164 17.2714 15.6122 15.6793C18.4669 14.8039 22.0627 14.2428 26.5874 14.1863C26.8719 14.1819 27.1597 14.1803 27.452 14.181C27.7986 12.1506 27.9043 10.044 27.7431 7.89675C27.7414 7.8739 27.7397 7.84871 27.7363 7.82567C27.5285 5.1377 26.9136 2.579 25.9589 0.201096C25.9334 0.133594 25.9062 0.0668443 25.8789 0C25.7179 0.306769 25.5222 0.620213 25.2956 0.934691H25.2955ZM22.8215 23.555C20.8761 26.5124 18.3169 29.0483 15.3074 30.975C15.3029 30.9768 15.2987 30.9785 15.2944 30.9817C13.0342 32.4259 10.5184 33.5261 7.82116 34.2004C11.2286 29.0206 16.5242 25.131 22.8215 23.555Z" fill="url(#paint0_linear_2001_27)"/>
<path d="M1.33576 40.0252V41.7615H2.4801C2.79467 41.7615 3.04043 41.6873 3.21708 41.5383C3.39364 41.3896 3.48201 41.1842 3.48201 40.922C3.48201 40.333 3.17468 40.0339 2.5603 40.0251H1.33576V40.0252ZM1.33576 39.0885H2.32423C2.99803 39.0768 3.33516 38.8103 3.33516 38.2888C3.33516 37.9973 3.24961 37.7874 3.07907 37.6593C2.90824 37.5311 2.63889 37.4671 2.27082 37.4671H1.33576V39.0885ZM0 42.8262V36.3936H2.27082C3.05754 36.3936 3.65406 36.5432 4.06096 36.842C4.46757 37.1409 4.67101 37.5791 4.67101 38.1563C4.67101 38.4716 4.58932 38.7492 4.42601 38.9892C4.2628 39.2292 4.03557 39.4053 3.74469 39.5171C4.07712 39.5997 4.33924 39.7663 4.53075 40.0164C4.72216 40.2669 4.81787 40.5731 4.81787 40.9354C4.81787 41.5538 4.61903 42.0222 4.22125 42.3403C3.82329 42.6583 3.25638 42.8204 2.52024 42.8262H0Z" fill="black"/>
<path d="M7.24015 42.8263H5.9043V36.3936L7.24015 36.1004V42.8263Z" fill="black"/>
<path d="M12.45 39.4642C12.45 38.7897 12.3281 38.2772 12.0849 37.9268C11.8414 37.5762 11.494 37.4009 11.043 37.4009C10.5947 37.4009 10.2488 37.574 10.0054 37.9201C9.762 38.2662 9.63875 38.7736 9.63583 39.4421V39.7557C9.63583 40.4127 9.75749 40.9222 10.0009 41.2844C10.2443 41.6467 10.5946 41.828 11.0518 41.828C11.5 41.828 11.8444 41.6534 12.0849 41.3044C12.3253 40.9553 12.4471 40.4465 12.45 39.778V39.4643V39.4642ZM13.8036 39.7557C13.8036 40.3892 13.6907 40.9444 13.4651 41.4214C13.2395 41.8986 12.9166 42.2668 12.4967 42.5259C12.0766 42.7852 11.595 42.9147 11.0517 42.9147C10.5144 42.9147 10.0349 42.7865 9.61346 42.5303C9.19199 42.2741 8.86539 41.9081 8.63383 41.4323C8.40237 40.9568 8.28513 40.4096 8.28212 39.7911V39.473C8.28212 38.8398 8.3971 38.2823 8.62715 37.8008C8.8572 37.3192 9.18221 36.9497 9.60227 36.692C10.0223 36.4342 10.5025 36.3053 11.0428 36.3053C11.583 36.3053 12.0632 36.4342 12.4833 36.692C12.9032 36.9497 13.2283 37.3192 13.4584 37.8008C13.6883 38.2823 13.8035 38.8383 13.8035 39.4686V39.7557H13.8036Z" fill="black"/>
<path d="M18.3811 41.7616H21.2177V42.8263H17.0454V36.3937H18.3811V41.7616Z" fill="black"/>
<path d="M26.7657 36.3936V40.6305C26.7657 41.3344 26.5438 41.8914 26.0999 42.3006C25.6561 42.7099 25.0497 42.9147 24.2811 42.9147C23.524 42.9147 22.9229 42.7159 22.4777 42.3183C22.0324 41.9207 21.8053 41.3745 21.7964 40.6791V36.3937H23.1322V40.6396C23.1322 41.0607 23.2338 41.3678 23.4372 41.5606C23.6405 41.7536 23.9217 41.8498 24.281 41.8498C25.032 41.8498 25.4133 41.4582 25.4252 40.6748V36.3937H26.7656L26.7657 36.3936Z" fill="black"/>
<path d="M30.181 38.6116L31.3965 36.3937H32.9327L31.0448 39.5833L32.9817 42.8263H31.4277L30.181 40.5731L28.9342 42.8263H27.3801L29.3171 39.5833L27.4293 36.3937H28.9653L30.181 38.6116Z" fill="black"/>
<path d="M37.5548 40.0386H34.9898V41.7615H37.7045L38 42.8264H33.6542V36.3936H37.9913L37.6958 37.4673H34.9898V39.0002H37.5548V40.0386Z" fill="black"/>
<defs>
<linearGradient id="paint0_linear_2001_27" x1="4.73843" y1="33.5352" x2="30.0687" y2="2.52616" gradientUnits="userSpaceOnUse">
<stop stop-color="#2C676B"/>
<stop offset="0.14902" stop-color="#5BABB5"/>
<stop offset="0.65098" stop-color="#8BF0FF"/>
<stop offset="0.729412" stop-color="#8BF0FF"/>
<stop offset="1" stop-color="#8BF0FF"/>
</linearGradient>
</defs>
</svg>
